<svg width="30" height="27" viewBox="0 0 30 27" fill="none" xmlns="http://www.w3.org/2000/svg">
<path d="M6.54304 17.3017C6.91487 16.3704 8.09135 16.0794 8.85441 16.73L12.8032 20.097C13.6315 20.8033 13.4277 22.1342 12.426 22.5602L6.05032 25.2719C4.85133 25.7818 3.63303 24.5904 4.11614 23.3803L6.54304 17.3017Z" fill="#8C8C8C"/>
<path d="M12.2253 8.79101C15.7417 1.7582 25.4118 0 29.8073 0C31.2725 5.12809 23.9467 15.3843 22.4815 16.1168C21.3094 16.7029 21.0163 18.3146 21.0163 19.0472C22.2373 18.0704 24.9723 16.2634 26.1444 16.8494C27.6096 17.582 21.0163 25.6404 19.5512 25.6404C18.086 25.6404 16.6208 24.1753 16.6208 23.4427V19.0472C15.1557 17.3378 12.0788 13.9191 11.4928 13.9191C10.7602 13.9191 7.82983 13.1865 6.36466 13.1865C5.19253 13.1865 3.92272 10.7446 3.43433 9.52359C5.63207 7.57004 10.4671 3.66292 12.2253 3.66292C13.9835 3.66292 13.4463 4.6397 12.9579 5.12809C12.2253 5.61648 10.6136 6.88629 10.0276 8.05842C9.44149 9.23056 11.2485 9.0352 12.2253 8.79101Z" fill="white"/>
</svg>
