<svg width="30" height="31" viewBox="0 0 30 31" fill="none" xmlns="http://www.w3.org/2000/svg">
<path d="M14.3701 29.4916C14.3701 30.0485 13.9186 30.5 13.3617 30.5H5.04199C2.25743 30.5 9.25802e-05 28.2425 0 25.458V5.79395C1.15318e-05 3.00933 2.25738 0.751966 5.04199 0.751953H13.3617C13.9186 0.751953 14.3701 1.20343 14.3701 1.76036V29.4916Z" fill="white"/>
<path d="M24.7063 0.5C27.4907 0.500265 29.7483 2.75753 29.7483 5.54199V14.1127C29.7483 14.6696 29.2968 15.1211 28.7399 15.1211H16.3866C15.8297 15.1211 15.3782 14.6696 15.3782 14.1127V1.5084C15.3782 0.951478 15.8297 0.5 16.3866 0.5H24.7063Z" fill="#8C8C8C"/>
<path d="M30 25.2061C29.9999 27.9905 27.7424 30.2478 24.958 30.248H16.3863C15.8294 30.248 15.3779 29.7966 15.3779 29.2396L15.3779 16.8863C15.3779 16.3294 15.8294 15.8779 16.3863 15.8779L28.9916 15.8779C29.5485 15.8779 30 16.3294 30 16.8863V25.2061Z" fill="#8C8C8C"/>
</svg>
