<svg width="30" height="32" viewBox="0 0 30 32" fill="none" xmlns="http://www.w3.org/2000/svg">
<path d="M0 14C0 12.8954 0.895431 12 2 12H28C29.1046 12 30 12.8954 30 14V24C30 28.4183 26.4183 32 22 32H8C3.58172 32 0 28.4183 0 24V14Z" fill="white"/>
<path d="M11 21L14 23L19.5 18" stroke="black" stroke-width="2.66505" stroke-linecap="round"/>
<path d="M0 9.8C0 7.14903 2.14903 5 4.8 5H25.2C27.851 5 30 7.14903 30 9.8V9.8C30 10.4627 29.4627 11 28.8 11H1.2C0.537259 11 0 10.4627 0 9.8V9.8Z" fill="#8C8C8C"/>
<path d="M9 5C10.2308 3.8256 13.2462 1.59424 15.4615 2.064C17.6769 2.53376 20.0769 4.21707 21 5" stroke="#8C8C8C" stroke-width="2.66505" stroke-linecap="round"/>
</svg>
