<svg width="30" height="30" viewBox="0 0 30 30" fill="none" xmlns="http://www.w3.org/2000/svg">
<path d="M22 0C26.4183 0 30 3.58172 30 8V22C30 26.4183 26.4183 30 22 30H8C3.58172 30 2.25497e-07 26.4183 0 22V8C0 3.58172 3.58172 2.2549e-07 8 0H22ZM8.5 19.167C7.76407 19.167 7.16699 19.7641 7.16699 20.5C7.16699 21.2359 7.76407 21.833 8.5 21.833H14.5L14.6367 21.8252C15.3084 21.7567 15.833 21.1898 15.833 20.5C15.833 19.8102 15.3084 19.2433 14.6367 19.1748L14.5 19.167H8.5ZM8.5 14.167C7.76407 14.167 7.16699 14.7641 7.16699 15.5C7.16699 16.2359 7.76407 16.833 8.5 16.833H21.5L21.6367 16.8252C22.3084 16.7567 22.833 16.1898 22.833 15.5C22.833 14.8102 22.3084 14.2433 21.6367 14.1748L21.5 14.167H8.5ZM8.5 9.16699C7.76407 9.16699 7.16699 9.76407 7.16699 10.5C7.16699 11.2359 7.76407 11.833 8.5 11.833H21.5L21.6367 11.8252C22.3084 11.7567 22.833 11.1898 22.833 10.5C22.833 9.81024 22.3084 9.24328 21.6367 9.1748L21.5 9.16699H8.5Z" fill="#D9D9D9"/>
</svg>
