<svg width="31" height="28" viewBox="0 0 31 28" fill="none" xmlns="http://www.w3.org/2000/svg">
<path d="M6.78084 18.0712C7.15266 17.1399 8.32914 16.8489 9.0922 17.4996L13.041 20.8666C13.8693 21.5728 13.6655 22.9037 12.6638 23.3297L6.28811 26.0414C5.08912 26.5514 3.87083 25.3599 4.35394 24.1499L6.78084 18.0712Z" fill="#8C8C8C"/>
<path d="M12.4631 9.56054C15.9795 2.52773 25.6496 0.769531 30.0451 0.769531C31.5103 5.89762 24.1845 16.1538 22.7193 16.8864C21.5472 17.4724 21.2541 19.0841 21.2541 19.8167C22.4751 18.8399 25.2101 17.0329 26.3822 17.619C27.8474 18.3515 21.2541 26.41 19.789 26.41C18.3238 26.41 16.8586 24.9448 16.8586 24.2122V19.8167C15.3935 18.1074 12.3166 14.6886 11.7305 14.6886C10.998 14.6886 8.06762 13.956 6.60246 13.956C5.43032 13.956 4.16051 11.5141 3.67212 10.2931C5.86986 8.33957 10.7049 4.43245 12.4631 4.43245C14.2213 4.43245 13.6841 5.40923 13.1957 5.89762C12.4631 6.38601 10.8514 7.65582 10.2654 8.82796C9.67929 10.0001 11.4863 9.80473 12.4631 9.56054Z" fill="white"/>
</svg>
