<svg width="30" height="31" viewBox="0 0 30 31" fill="none" xmlns="http://www.w3.org/2000/svg">
<mask id="path-1-inside-1_132_76" fill="white">
<path d="M15 0C23.2843 0 30 6.71573 30 15C30 23.2843 23.2843 30 15 30C12.8306 30 10.7691 29.5386 8.90723 28.71C6.7973 29.497 3.06152 30.6563 2.13086 30.0166C1.26528 29.4212 1.85979 25.6822 2.4209 23.1729C0.890096 20.8216 0 18.0149 0 15C0 6.71573 6.71573 0 15 0Z"/>
</mask>
<path d="M15 0C23.2843 0 30 6.71573 30 15C30 23.2843 23.2843 30 15 30C12.8306 30 10.7691 29.5386 8.90723 28.71C6.7973 29.497 3.06152 30.6563 2.13086 30.0166C1.26528 29.4212 1.85979 25.6822 2.4209 23.1729C0.890096 20.8216 0 18.0149 0 15C0 6.71573 6.71573 0 15 0Z" fill="white"/>
<path d="M8.90723 28.71L9.07207 28.3396L8.92074 28.2722L8.76554 28.3301L8.90723 28.71ZM2.13086 30.0166L1.90111 30.3506L1.90123 30.3507L2.13086 30.0166ZM2.4209 23.1729L2.81653 23.2613L2.85379 23.0947L2.76065 22.9517L2.4209 23.1729ZM15 0V0.405405C23.0604 0.405405 29.5946 6.93963 29.5946 15H30H30.4054C30.4054 6.49183 23.5082 -0.405405 15 -0.405405V0ZM30 15H29.5946C29.5946 23.0604 23.0604 29.5946 15 29.5946V30V30.4054C23.5082 30.4054 30.4054 23.5082 30.4054 15H30ZM15 30V29.5946C12.8886 29.5946 10.8832 29.1456 9.07207 28.3396L8.90723 28.71L8.74238 29.0803C10.655 29.9316 12.7726 30.4054 15 30.4054V30ZM8.90723 28.71L8.76554 28.3301C7.71945 28.7203 6.27551 29.2007 4.98423 29.5036C4.33734 29.6554 3.7424 29.7593 3.26116 29.7883C3.02062 29.8028 2.81942 29.7979 2.66018 29.7751C2.49684 29.7517 2.40529 29.7133 2.36049 29.6825L2.13086 30.0166L1.90123 30.3507C2.0891 30.4798 2.31787 30.5451 2.54521 30.5777C2.77664 30.6109 3.03647 30.6142 3.31 30.5976C3.8569 30.5646 4.50228 30.4495 5.1694 30.293C6.50616 29.9794 7.98507 29.4866 9.04891 29.0898L8.90723 28.71ZM2.13086 30.0166L2.36061 29.6826C2.34246 29.6701 2.29718 29.6267 2.24833 29.5043C2.20044 29.3843 2.16079 29.2172 2.13458 29.0003C2.08219 28.5668 2.09051 27.9966 2.14487 27.3463C2.25324 26.0497 2.5378 24.5079 2.81653 23.2613L2.4209 23.1729L2.02526 23.0844C1.74289 24.3472 1.44964 25.9296 1.33688 27.2787C1.28067 27.9512 1.26759 28.5843 1.32963 29.0976C1.36065 29.3543 1.41217 29.5965 1.49526 29.8048C1.57738 30.0106 1.70287 30.2143 1.90111 30.3506L2.13086 30.0166ZM2.4209 23.1729L2.76065 22.9517C1.27135 20.6641 0.405405 17.9339 0.405405 15H0H-0.405405C-0.405405 18.0958 0.508843 20.979 2.08115 23.394L2.4209 23.1729ZM0 15H0.405405C0.405405 6.93963 6.93963 0.405405 15 0.405405V0V-0.405405C6.49183 -0.405405 -0.405405 6.49183 -0.405405 15H0Z" fill="black" mask="url(#path-1-inside-1_132_76)"/>
</svg>
