<svg width="30" height="29" viewBox="0 0 30 29" fill="none" xmlns="http://www.w3.org/2000/svg">
<path d="M17.9189 4.21582C11.2467 4.21582 5.83789 9.5884 5.83789 16.2158C5.83789 22.8432 11.2467 28.2158 17.9189 28.2158C19.6653 28.2158 21.3233 27.8439 22.8223 27.1816C24.521 27.8113 27.5342 28.7419 28.2842 28.2295C28.9813 27.7522 28.5009 24.7582 28.0488 22.751C29.2811 20.8703 30 18.627 30 16.2158C30 9.58841 24.5911 4.21583 17.9189 4.21582Z" fill="#8C8C8C"/>
<mask id="path-2-inside-1_132_58" fill="white">
<path d="M12 0C18.6274 0 24 5.37258 24 12C24 18.6274 18.6274 24 12 24C10.2655 24 8.61868 23.628 7.12988 22.9658C5.44288 23.5954 2.45059 24.5255 1.70508 24.0137C1.01211 23.537 1.48833 20.5417 1.9375 18.5342C0.713865 16.6537 0 14.4108 0 12C0 5.37258 5.37258 0 12 0Z"/>
</mask>
<path d="M12 0C18.6274 0 24 5.37258 24 12C24 18.6274 18.6274 24 12 24C10.2655 24 8.61868 23.628 7.12988 22.9658C5.44288 23.5954 2.45059 24.5255 1.70508 24.0137C1.01211 23.537 1.48833 20.5417 1.9375 18.5342C0.713865 16.6537 0 14.4108 0 12C0 5.37258 5.37258 0 12 0Z" fill="white"/>
<path d="M7.12988 22.9658L7.26169 22.6695L7.14062 22.6156L7.01648 22.662L7.12988 22.9658ZM1.70508 24.0137L1.52128 24.2809L1.5215 24.281L1.70508 24.0137ZM1.9375 18.5342L2.254 18.605L2.28381 18.4717L2.20934 18.3573L1.9375 18.5342ZM12 0V0.324324C18.4483 0.324324 23.6757 5.5517 23.6757 12H24H24.3243C24.3243 5.19346 18.8065 -0.324324 12 -0.324324V0ZM24 12H23.6757C23.6757 18.4483 18.4483 23.6757 12 23.6757V24V24.3243C18.8065 24.3243 24.3243 18.8065 24.3243 12H24ZM12 24V23.6757C10.3123 23.6757 8.71032 23.3138 7.26169 22.6695L7.12988 22.9658L6.99808 23.2622C8.52704 23.9422 10.2186 24.3243 12 24.3243V24ZM7.12988 22.9658L7.01648 22.662C6.18005 22.9741 5.02419 23.3591 3.99023 23.6021C3.47224 23.7238 2.99576 23.8072 2.61028 23.8307C2.41761 23.8424 2.25643 23.8386 2.12884 23.8204C1.99796 23.8017 1.92458 23.771 1.88865 23.7463L1.70508 24.0137L1.5215 24.281C1.67196 24.3843 1.85516 24.4365 2.03721 24.4625C2.22255 24.4889 2.43062 24.4915 2.64968 24.4782C3.08765 24.4515 3.60446 24.359 4.13861 24.2335C5.20892 23.982 6.39271 23.5871 7.24328 23.2697L7.12988 22.9658ZM1.70508 24.0137L1.88888 23.7465C1.87433 23.7365 1.83806 23.7017 1.79893 23.6036C1.76059 23.5074 1.72884 23.3735 1.70787 23.1999C1.66594 22.8525 1.67263 22.3959 1.71618 21.875C1.803 20.8367 2.03088 19.6022 2.254 18.605L1.9375 18.5342L1.621 18.4634C1.39495 19.4737 1.16013 20.7406 1.06979 21.821C1.02476 22.3595 1.01426 22.8665 1.0639 23.2776C1.08871 23.4831 1.12994 23.6771 1.19643 23.8439C1.26215 24.0086 1.36258 24.1717 1.52128 24.2809L1.70508 24.0137ZM1.9375 18.5342L2.20934 18.3573C1.01873 16.5275 0.324324 14.3458 0.324324 12H0H-0.324324C-0.324324 14.4758 0.408996 16.7798 1.66566 18.7111L1.9375 18.5342ZM0 12H0.324324C0.324324 5.5517 5.5517 0.324324 12 0.324324V0V-0.324324C5.19346 -0.324324 -0.324324 5.19346 -0.324324 12H0Z" fill="black" mask="url(#path-2-inside-1_132_58)"/>
</svg>
