<svg width="30" height="30" viewBox="0 0 30 30" fill="none" xmlns="http://www.w3.org/2000/svg">
<path d="M22 0C26.4183 0 30 3.58172 30 8V22C30 26.4183 26.4183 30 22 30H8C3.58172 30 2.25497e-07 26.4183 0 22V8C0 3.58172 3.58172 2.2549e-07 8 0H22ZM24.9678 9.08398C24.4933 8.58312 23.7222 8.53175 23.1875 8.94434L23.084 9.03223C22.6703 9.42409 22.1943 10.0238 21.8066 10.4697C21.3713 10.9705 20.8876 11.4799 20.2842 11.9443C19.1124 12.8462 17.3757 13.667 14.5 13.667C10.7676 13.667 7.73628 11.3254 6.3457 9.57422L6.08984 9.2334L6.00586 9.12598C5.56345 8.61559 4.7977 8.51322 4.2334 8.91016C3.66913 9.30723 3.50693 10.0626 3.83789 10.6514L3.91016 10.7666L4.23145 11.1973C5.97244 13.4012 9.70579 16.333 14.5 16.333C17.9574 16.333 20.2672 15.3203 21.9102 14.0557C22.7139 13.4369 23.3302 12.7794 23.8184 12.2178C24.354 11.6016 24.6261 11.2425 24.916 10.9678L25.0107 10.8691C25.4517 10.3576 25.4419 9.58493 24.9678 9.08398Z" fill="white"/>
</svg>
