<svg width="30" height="30" viewBox="0 0 30 30" fill="none" xmlns="http://www.w3.org/2000/svg">
<path d="M23.8164 2.86426L29.2656 10.3643V19.6357L23.8164 27.1357L15 30L6.18359 27.1357L0.734375 19.6357V10.3643L6.18359 2.86426L15 0L23.8164 2.86426ZM20.4863 11.1035C20.0222 10.5929 19.2521 10.5261 18.709 10.9277L18.6035 11.0137L13.8721 15.3135L11.7393 13.8916L11.6221 13.8213C11.0252 13.5054 10.2744 13.6869 9.8916 14.2607C9.50889 14.8348 9.63014 15.5978 10.1514 16.0273L10.2607 16.1084L13.2607 18.1084L14.127 18.6855L14.8965 17.9863L20.3965 12.9863L20.4922 12.8896C20.9438 12.3872 20.9505 11.6142 20.4863 11.1035Z" fill="#D9D9D9"/>
</svg>
