<svg width="24" height="25" viewBox="0 0 24 25" fill="none" xmlns="http://www.w3.org/2000/svg">
<mask id="path-1-inside-1_103_29" fill="white">
<path fill-rule="evenodd" clip-rule="evenodd" d="M11.1694 7.51993C11.4622 7.22703 11.9371 7.22703 12.23 7.51992C12.5229 7.81281 12.5229 8.28768 12.23 8.58058L8.5596 12.2511H18.3369C18.7511 12.2511 19.0869 12.5869 19.0869 13.0011C19.0869 13.4153 18.7511 13.7511 18.3369 13.7511H8.56169L12.23 17.4194C12.5229 17.7123 12.5229 18.1872 12.23 18.4801C11.9371 18.773 11.4623 18.773 11.1694 18.4801L6.21967 13.5304C5.92678 13.2375 5.92678 12.7626 6.21966 12.4697L11.1694 7.51993Z"/>
</mask>
<path fill-rule="evenodd" clip-rule="evenodd" d="M11.1694 7.51993C11.4622 7.22703 11.9371 7.22703 12.23 7.51992C12.5229 7.81281 12.5229 8.28768 12.23 8.58058L8.5596 12.2511H18.3369C18.7511 12.2511 19.0869 12.5869 19.0869 13.0011C19.0869 13.4153 18.7511 13.7511 18.3369 13.7511H8.56169L12.23 17.4194C12.5229 17.7123 12.5229 18.1872 12.23 18.4801C11.9371 18.773 11.4623 18.773 11.1694 18.4801L6.21967 13.5304C5.92678 13.2375 5.92678 12.7626 6.21966 12.4697L11.1694 7.51993Z" fill="black"/>
<path d="M12.23 7.51992L12.9371 6.8128V6.8128L12.23 7.51992ZM11.1694 7.51993L11.8765 8.22703L11.1694 7.51993ZM12.23 8.58058L12.9371 9.28768L12.23 8.58058ZM8.5596 12.2511L7.85248 11.544L6.14543 13.2511H8.5596V12.2511ZM8.56169 13.7511V12.7511H6.14748L7.85458 14.4582L8.56169 13.7511ZM12.23 17.4194L12.9371 16.7123H12.9371L12.23 17.4194ZM11.1694 18.4801L11.8765 17.773H11.8765L11.1694 18.4801ZM6.21967 13.5304L5.51256 14.2375L5.51256 14.2375L6.21967 13.5304ZM6.21966 12.4697L5.51255 11.7626L5.51255 11.7626L6.21966 12.4697ZM12.9371 6.8128C12.2537 6.12939 11.1456 6.12941 10.4622 6.81283L11.8765 8.22703C11.7788 8.32466 11.6205 8.32466 11.5229 8.22703L12.9371 6.8128ZM12.9371 9.28768C13.6205 8.60425 13.6205 7.49621 12.9371 6.8128L11.5229 8.22703C11.4253 8.1294 11.4253 7.97111 11.5229 7.87348L12.9371 9.28768ZM9.26671 12.9582L12.9371 9.28768L11.5229 7.87348L7.85248 11.544L9.26671 12.9582ZM8.5596 13.2511H18.3369V11.2511H8.5596V13.2511ZM18.3369 13.2511C18.1988 13.2511 18.0869 13.1392 18.0869 13.0011H20.0869C20.0869 12.0346 19.3034 11.2511 18.3369 11.2511V13.2511ZM18.0869 13.0011C18.0869 12.863 18.1988 12.7511 18.3369 12.7511V14.7511C19.3034 14.7511 20.0869 13.9676 20.0869 13.0011H18.0869ZM18.3369 12.7511H8.56169V14.7511H18.3369V12.7511ZM12.9371 16.7123L9.2688 13.044L7.85458 14.4582L11.5229 18.1265L12.9371 16.7123ZM12.9371 19.1872C13.6205 18.5038 13.6205 17.3957 12.9371 16.7123L11.5229 18.1265C11.4253 18.0289 11.4253 17.8706 11.5229 17.773L12.9371 19.1872ZM10.4623 19.1872C11.1457 19.8706 12.2537 19.8706 12.9371 19.1872L11.5229 17.773C11.6205 17.6753 11.7788 17.6753 11.8765 17.773L10.4623 19.1872ZM5.51256 14.2375L10.4623 19.1872L11.8765 17.773L6.92678 12.8233L5.51256 14.2375ZM5.51255 11.7626C4.82915 12.4461 4.82915 13.5541 5.51256 14.2375L6.92678 12.8233C7.02441 12.9209 7.02441 13.0792 6.92678 13.1768L5.51255 11.7626ZM10.4622 6.81283L5.51255 11.7626L6.92678 13.1768L11.8765 8.22703L10.4622 6.81283Z" fill="black" mask="url(#path-1-inside-1_103_29)"/>
</svg>
