<svg width="30" height="30" viewBox="0 0 30 30" fill="none" xmlns="http://www.w3.org/2000/svg">
<path opacity="0.5" d="M30 12H0V25.5C0 26.6935 0.474106 27.8381 1.31802 28.682C2.16193 29.5259 3.30653 30 4.5 30H25.5C26.6935 30 27.8381 29.5259 28.682 28.682C29.5259 27.8381 30 26.6935 30 25.5V12ZM7.5 9C7.10218 9 6.72064 8.84196 6.43934 8.56066C6.15804 8.27935 6 7.89782 6 7.5V1.5C6 1.10218 6.15804 0.720644 6.43934 0.43934C6.72064 0.158035 7.10218 0 7.5 0C7.89782 0 8.27935 0.158035 8.56066 0.43934C8.84196 0.720644 9 1.10218 9 1.5V7.5C9 7.89782 8.84196 8.27935 8.56066 8.56066C8.27935 8.84196 7.89782 9 7.5 9ZM22.5 9C22.1022 9 21.7206 8.84196 21.4393 8.56066C21.158 8.27935 21 7.89782 21 7.5V1.5C21 1.10218 21.158 0.720644 21.4393 0.43934C21.7206 0.158035 22.1022 0 22.5 0C22.8978 0 23.2794 0.158035 23.5607 0.43934C23.842 0.720644 24 1.10218 24 1.5V7.5C24 7.89782 23.842 8.27935 23.5607 8.56066C23.2794 8.84196 22.8978 9 22.5 9Z" fill="white"/>
<path d="M25.5 3H24V7.5C24 7.89782 23.842 8.27936 23.5607 8.56066C23.2794 8.84196 22.8978 9 22.5 9C22.1022 9 21.7206 8.84196 21.4393 8.56066C21.158 8.27936 21 7.89782 21 7.5V3H9V7.5C9 7.89782 8.84196 8.27936 8.56066 8.56066C8.27936 8.84196 7.89782 9 7.5 9C7.10218 9 6.72064 8.84196 6.43934 8.56066C6.15804 8.27936 6 7.89782 6 7.5V3H4.5C3.30653 3 2.16193 3.47411 1.31802 4.31802C0.474106 5.16193 0 6.30653 0 7.5V12H30V7.5C30 6.30653 29.5259 5.16193 28.682 4.31802C27.8381 3.47411 26.6935 3 25.5 3Z" fill="#EAEAEA"/>
</svg>
