<svg width="34" height="42" viewBox="0 0 34 42" fill="none" xmlns="http://www.w3.org/2000/svg">
<path d="M2 21V33.8571C2 33.8571 2 40.2857 17 40.2857C32 40.2857 32 33.8571 32 33.8571V21" stroke="white" stroke-width="3.21429"/>
<path d="M2 8.14307V21.0002C2 21.0002 2 27.4288 17 27.4288C32 27.4288 32 21.0002 32 21.0002V8.14307" stroke="white" stroke-width="3.21429"/>
<path d="M17 1.71436C32 1.71436 32 8.14293 32 8.14293C32 8.14293 32 14.5715 17 14.5715C2 14.5715 2 8.14293 2 8.14293C2 8.14293 2 1.71436 17 1.71436Z" stroke="white" stroke-width="3.21429"/>
</svg>
