<svg width="30" height="30" viewBox="0 0 30 30" fill="none" xmlns="http://www.w3.org/2000/svg">
<path fill-rule="evenodd" clip-rule="evenodd" d="M15 27.1875C15.4313 27.1875 16.5806 26.7638 17.7881 24.3488C18.3619 23.2013 18.8438 21.78 19.1794 20.1562H10.8206C11.1562 21.78 11.6381 23.2013 12.2119 24.3488C13.4194 26.7638 14.5687 27.1875 15 27.1875ZM10.4137 17.3438C10.2779 15.7842 10.2779 14.2158 10.4137 12.6562H19.5863C19.7212 14.2158 19.7212 15.7842 19.5863 17.3438H10.4137ZM22.0444 20.1562C21.6244 22.4512 20.9325 24.4838 20.0456 26.0963C22.6866 24.8903 24.8132 22.785 26.0456 20.1562H22.0444ZM26.9625 17.3438H22.4062C22.5285 15.7836 22.5285 14.2164 22.4062 12.6562H26.9606C27.2639 14.204 27.2639 15.796 26.9606 17.3438H26.9625ZM7.59187 17.3438H3.0375C2.73419 15.796 2.73419 14.204 3.0375 12.6562H7.59375C7.47149 14.2164 7.47149 15.7836 7.59375 17.3438H7.59187ZM3.95437 20.1562H7.95563C8.37563 22.4512 9.0675 24.4838 9.95438 26.0963C7.31336 24.8903 5.18685 22.785 3.95437 20.1562ZM10.8206 9.84375H19.1794C18.8438 8.22 18.3619 6.79875 17.7881 5.65125C16.5806 3.23625 15.4313 2.8125 15 2.8125C14.5687 2.8125 13.4194 3.23625 12.2119 5.65125C11.6381 6.79875 11.1562 8.22 10.8206 9.84375ZM22.0444 9.84375H26.0456C24.8132 7.21499 22.6866 5.10974 20.0456 3.90375C20.9325 5.51625 21.6244 7.54875 22.0444 9.84375ZM9.95625 3.90375C9.06937 5.51625 8.3775 7.54875 7.9575 9.84375H3.95437C5.18685 7.21499 7.31524 5.10974 9.95625 3.90375ZM15 0C18.9782 0 22.7936 1.58035 25.6066 4.3934C28.4196 7.20644 30 11.0218 30 15C30 18.9782 28.4196 22.7936 25.6066 25.6066C22.7936 28.4196 18.9782 30 15 30C11.0218 30 7.20644 28.4196 4.3934 25.6066C1.58035 22.7936 0 18.9782 0 15C0 11.0218 1.58035 7.20644 4.3934 4.3934C7.20644 1.58035 11.0218 0 15 0Z" fill="white"/>
</svg>
