<svg width="30" height="30" viewBox="0 0 30 30" fill="none" xmlns="http://www.w3.org/2000/svg">
<path d="M24 0C27.3137 0 30 2.68629 30 6V24C30 27.3137 27.3137 30 24 30H6C2.68629 30 4.83208e-08 27.3137 0 24V6C0 2.68629 2.68629 4.83192e-08 6 0H24ZM15.9307 6.56934C15.4169 6.05557 14.5831 6.05557 14.0693 6.56934L5.69727 14.9424C5.18371 15.4562 5.18357 16.289 5.69727 16.8027C6.21096 17.3164 7.04383 17.3163 7.55762 16.8027L13.6846 10.6758V25.5H16.3154V10.6758L22.4424 16.8027C22.9562 17.3163 23.789 17.3164 24.3027 16.8027C24.8164 16.289 24.8163 15.4562 24.3027 14.9424L15.9307 6.56934Z" fill="white"/>
</svg>
