<svg width="31" height="36" viewBox="0 0 31 36" fill="none" xmlns="http://www.w3.org/2000/svg">
<path d="M16.3824 35.6471L15.9412 30.353H15.5C11.3235 30.353 7.77941 28.8971 4.86765 25.9854C1.95588 23.0736 0.5 19.5295 0.5 15.353C0.5 11.1766 1.95588 7.63244 4.86765 4.72067C7.77941 1.80891 11.3235 0.353027 15.5 0.353027C17.5882 0.353027 19.5371 0.742439 21.3465 1.52126C23.1559 2.30009 24.7441 3.37362 26.1112 4.74185C27.4782 6.11009 28.5512 7.69832 29.33 9.50656C30.1088 11.3148 30.4988 13.2636 30.5 15.353C30.5 17.5589 30.14 19.6766 29.42 21.706C28.7 23.7354 27.7141 25.6177 26.4624 27.353C25.2106 29.0883 23.7253 30.6619 22.0065 32.0736C20.2876 33.4854 18.4129 34.6766 16.3824 35.6471ZM19.9118 29.206C22 27.4413 23.6988 25.3754 25.0082 23.0083C26.3176 20.6413 26.9718 18.0895 26.9706 15.353C26.9706 12.1471 25.86 9.4342 23.6388 7.2142C21.4176 4.9942 18.7047 3.88362 15.5 3.88244C12.2953 3.88126 9.58235 4.99185 7.36118 7.2142C5.14 9.43656 4.02941 12.1495 4.02941 15.353C4.02941 18.5566 5.14 21.2701 7.36118 23.4936C9.58235 25.7171 12.2953 26.8271 15.5 26.8236H19.9118V29.206ZM15.4559 25.0148C15.9559 25.0148 16.3824 24.8383 16.7353 24.4854C17.0882 24.1324 17.2647 23.706 17.2647 23.206C17.2647 22.706 17.0882 22.2795 16.7353 21.9266C16.3824 21.5736 15.9559 21.3971 15.4559 21.3971C14.9559 21.3971 14.5294 21.5736 14.1765 21.9266C13.8235 22.2795 13.6471 22.706 13.6471 23.206C13.6471 23.706 13.8235 24.1324 14.1765 24.4854C14.5294 24.8383 14.9559 25.0148 15.4559 25.0148ZM14.1765 19.4119H16.8235C16.8235 18.5295 16.9118 17.9119 17.0882 17.5589C17.2647 17.206 17.8235 16.5589 18.7647 15.6177C19.2941 15.0883 19.7353 14.5148 20.0882 13.8971C20.4412 13.2795 20.6176 12.6177 20.6176 11.9119C20.6176 10.4119 20.1106 9.28715 19.0965 8.53773C18.0824 7.78832 16.8835 7.41303 15.5 7.41185C14.2059 7.41185 13.1176 7.77244 12.2353 8.49362C11.3529 9.21479 10.7353 10.0895 10.3824 11.1177L12.8529 12.0883C13 11.5883 13.2794 11.096 13.6912 10.6113C14.1029 10.1266 14.7059 9.88362 15.5 9.88244C16.2941 9.88126 16.89 10.1019 17.2876 10.5442C17.6853 10.9866 17.8835 11.4719 17.8824 12.0001C17.8824 12.5001 17.7353 12.9489 17.4412 13.3466C17.1471 13.7442 16.7941 14.1483 16.3824 14.5589C15.3529 15.4413 14.7282 16.1401 14.5082 16.6554C14.2882 17.1707 14.1776 18.0895 14.1765 19.4119Z" fill="white"/>
</svg>
