<svg width="24" height="24" viewBox="0 0 24 24" fill="none" xmlns="http://www.w3.org/2000/svg">
<path fill-rule="evenodd" clip-rule="evenodd" d="M9.74993 3.5C11.0833 2.5 12.9166 2.5 14.2499 3.5L20.091 7.88079C21.3077 8.79334 21.8528 10.3504 21.4708 11.8226L19.5588 19.1918C19.1297 20.8454 17.6373 22 15.929 22H15.4999C14.5334 22 13.7499 21.2165 13.7499 20.25V16.25C13.7499 16.1119 13.638 16 13.4999 16H10.4999C10.3619 16 10.2499 16.1119 10.2499 16.25V20.25C10.2499 21.2165 9.46643 22 8.49993 22H8.07089C6.36254 22 4.87011 20.8454 4.44107 19.1918L2.52906 11.8226C2.1471 10.3504 2.69215 8.79334 3.90888 7.88079L9.74993 3.5ZM13.3499 4.7C12.5499 4.1 11.4499 4.1 10.6499 4.7L4.80888 9.08079C4.07884 9.62832 3.75181 10.5626 3.98099 11.4459L5.893 18.8151C6.15042 19.8072 7.04588 20.5 8.07089 20.5H8.49993C8.638 20.5 8.74993 20.3881 8.74993 20.25V16.25C8.74993 15.2835 9.53343 14.5 10.4999 14.5H13.4999C14.4664 14.5 15.2499 15.2835 15.2499 16.25V20.25C15.2499 20.3881 15.3619 20.5 15.4999 20.5H15.929C16.954 20.5 17.8494 19.8072 18.1069 18.8151L20.0189 11.4459C20.2481 10.5626 19.921 9.62832 19.191 9.08079L13.3499 4.7Z" fill="white"/>
</svg>
