<svg width="24" height="24" viewBox="0 0 24 24" fill="none" xmlns="http://www.w3.org/2000/svg">
<path d="M19.6409 8.48079L13.7999 4.1C12.7332 3.3 11.2666 3.3 10.1999 4.1L4.35884 8.48079C3.38546 9.21083 2.94942 10.4565 3.25499 11.6342L5.167 19.0034C5.51023 20.3263 6.70417 21.25 8.07085 21.25H8.49989C9.05218 21.25 9.49989 20.8023 9.49989 20.25V16.25C9.49989 15.6977 9.94761 15.25 10.4999 15.25H13.4999C14.0522 15.25 14.4999 15.6977 14.4999 16.25V20.25C14.4999 20.8023 14.9476 21.25 15.4999 21.25H15.9289C17.2956 21.25 18.4896 20.3263 18.8328 19.0034L20.7448 11.6342C21.0504 10.4565 20.6143 9.21083 19.6409 8.48079Z" fill="#E63838"/>
</svg>
